HIERARCHY
ROOT Hips
{
    OFFSET 0.000000 0.000000 0.000000
    CHANNELS 6 Xposition Yposition Zposition Zrotation Xrotation Yrotation
    JOINT Spine
    {
        OFFSET -0.000000 7.246840 0.000000
        CHANNELS 3 Zrotation Xrotation Yrotation
        JOINT Spine1
        {
            OFFSET -0.000000 20.289354 0.000000
            CHANNELS 3 Zrotation Xrotation Yrotation
            JOINT Neck
            {
                OFFSET -0.000000 20.206032 1.836912
                CHANNELS 3 Zrotation Xrotation Yrotation
                JOINT Head
                {
                    OFFSET -0.000000 12.372654 -1.767522
                    CHANNELS 3 Zrotation Xrotation Yrotation
                    End Site
                    {
                        OFFSET -0.000000 22.094025 0.000000
                    }
                }
            }
            JOINT LeftShoulder
            {
                OFFSET 3.465871 17.201674 -0.568930
                CHANNELS 3 Zrotation Xrotation Yrotation
                JOINT LeftArm
                {
                    OFFSET 14.070313 0.000000 0.000000
                    CHANNELS 3 Zrotation Xrotation Yrotation
                    JOINT LeftForeArm
                    {
                        OFFSET 26.549477 0.000000 0.000000
                        CHANNELS 3 Zrotation Xrotation Yrotation
                        JOINT LeftHand
                        {
                            OFFSET 18.880413 0.000000 0.000000
                            CHANNELS 3 Zrotation Xrotation Yrotation
                            End Site
                            {
                                OFFSET 13.256415 0.000000 0.000000
                            }
                        }
                    }
                }
            }
            JOINT RightShoulder
            {
                OFFSET -3.526370 17.201674 -0.568930
                CHANNELS 3 Zrotation Xrotation Yrotation
                JOINT RightArm
                {
                    OFFSET -14.070313 0.000000 0.000000
                    CHANNELS 3 Zrotation Xrotation Yrotation
                    JOINT RightForeArm
                    {
                        OFFSET -26.549477 0.000000 0.000000
                        CHANNELS 3 Zrotation Xrotation Yrotation
                        JOINT RightHand
                        {
                            OFFSET -18.880413 0.000000 0.000000
                            CHANNELS 3 Zrotation Xrotation Yrotation
                            End Site
                            {
                                OFFSET -13.256415 0.000000 0.000000
                            }
                        }
                    }
                }
            }
        }
    }
    JOINT LeftUpLeg
    {
        OFFSET 8.837609 0.000000 0.000000
        CHANNELS 3 Zrotation Xrotation Yrotation
        JOINT LeftLeg
        {
            OFFSET -0.000000 -41.345005 0.000000
            CHANNELS 3 Zrotation Xrotation Yrotation
            JOINT LeftFoot
            {
                OFFSET -0.000000 -35.500874 0.000000
                CHANNELS 3 Zrotation Xrotation Yrotation
                JOINT LeftToeBase
                {
                    OFFSET -0.000000 -5.744446 13.256415
                    CHANNELS 3 Zrotation Xrotation Yrotation
                    End Site
                    {
                        OFFSET -0.000000 0.000000 3.535044
                    }
                }
            }
        }
    }
    JOINT RightUpLeg
    {
        OFFSET -8.837609 0.000000 0.000000
        CHANNELS 3 Zrotation Xrotation Yrotation
        JOINT RightLeg
        {
            OFFSET -0.000000 -41.345005 0.000000
            CHANNELS 3 Zrotation Xrotation Yrotation
            JOINT RightFoot
            {
                OFFSET -0.000000 -35.500874 0.000000
                CHANNELS 3 Zrotation Xrotation Yrotation
                JOINT RightToeBase
                {
                    OFFSET -0.000000 -5.744446 13.256415
                    CHANNELS 3 Zrotation Xrotation Yrotation
                    End Site
                    {
                        OFFSET -0.000000 0.000000 3.535044
                    }
                }
            }
        }
    }
}
MOTION
Frames:    9
Frame Time:    0.010000
1.551533    82.164063    -68.022552    3.438482    4.717223    -2.920017    -5.188254    -15.931846    -0.584880    1.516753    4.514793    0.081817    0.039549    30.918962    -1.042062    2.828718    -11.076582    -0.409097    19.353937    1.625452    8.903033    -32.239895    11.417310    -9.482664    6.251054    -11.577417    -14.801982    -28.147984    -8.817342    -7.931778    -16.003466    1.674940    10.245321    25.919506    5.356756    5.656905    -4.925440    -9.500862    8.081054    8.728363    -8.189298    12.777628    -4.240369    5.154184    1.354683    -2.133323    -9.292029    -1.881165    5.333025    1.023182    -1.767262    0.295537    -1.950919    -0.418678    -8.347242    3.497313    4.143684    8.498855    -10.277369    4.189979    -2.725864    0.470910    -8.450184    0.946820    -0.443817    -1.706048    
1.551141    82.163063    -68.006287    3.435326    4.722542    -2.925307    -5.185517    -15.948635    -0.584585    1.514150    4.517672    0.082995    0.013955    30.912609    -1.040430    2.863916    -11.070232    -0.402971    19.358906    1.609384    8.917588    -32.246693    11.432703    -9.484210    6.253867    -11.555149    -14.823356    -28.209351    -8.806978    -7.859187    -15.996847    1.665072    10.246817    25.912369    5.353885    5.655569    -4.939640    -9.478806    8.082449    8.787135    -8.161811    12.748429    -4.233328    5.164791    1.341926    -2.136307    -9.294127    -1.878681    5.339263    1.009595    -1.763404    0.293676    -1.924857    -0.415974    -8.341006    3.502575    4.135595    8.494875    -10.274144    4.197228    -2.721934    0.458571    -8.413313    0.963441    -0.438262    -1.735891    
1.551752    82.162247    -67.989571    3.431236    4.729103    -2.930903    -5.188685    -15.960401    -0.580505    1.523571    4.503729    0.087691    0.016509    30.915361    -1.045957    2.868497    -11.060140    -0.407483    19.355396    1.630086    8.908585    -32.257130    11.431181    -9.495939    6.276312    -11.638094    -14.879594    -28.546232    -8.966885    -7.437254    -15.995454    1.677106    10.245189    25.907867    5.358365    5.645703    -4.949254    -9.465906    8.094792    8.827946    -8.145085    12.723139    -4.234910    5.173561    1.341448    -2.135654    -9.305514    -1.822600    5.347785    1.016035    -1.778825    0.323177    -1.969941    -0.457889    -8.341863    3.510394    4.152060    8.514021    -10.269318    4.145720    -2.747775    0.442062    -8.371843    0.964024    -0.480524    -1.737738    
1.551686    82.161415    -67.971680    3.432437    4.734140    -2.931896    -5.193797    -15.980618    -0.580841    1.528175    4.510354    0.088709    0.002531    30.899261    -1.043213    2.880274    -11.033039    -0.404594    19.336834    1.631960    8.902403    -32.244507    11.441148    -9.503082    6.275970    -11.615605    -14.866366    -28.521544    -8.952397    -7.414527    -16.003805    1.667556    10.247784    25.915611    5.375878    5.631859    -4.950612    -9.489308    8.102415    8.870661    -8.164392    12.710416    -4.234552    5.184782    1.323234    -2.128543    -9.316007    -1.855697    5.341804    1.005093    -1.777501    0.259801    -1.952346    -0.368055    -8.343312    3.521386    4.124078    8.510064    -10.280527    4.174418    -2.680756    0.408540    -8.385824    0.954021    -0.412380    -1.718436    
1.554061    82.162102    -67.956223    3.433538    4.749812    -2.940583    -5.188509    -16.002901    -0.575957    1.515299    4.498167    0.094695    0.041053    30.898901    -1.056513    2.838834    -11.016350    -0.422934    19.344383    1.635871    8.903711    -32.249828    11.461507    -9.521500    6.263302    -11.503353    -14.790344    -28.174337    -8.766503    -7.824564    -15.999022    1.688341    10.247870    25.910944    5.379665    5.635857    -4.943563    -9.508260    8.093312    8.871307    -8.183093    12.724979    -4.238176    5.182494    1.319536    -2.140194    -9.310012    -1.801164    5.348719    1.003228    -1.773569    0.304130    -1.944818    -0.430835    -8.355047    3.518685    4.170844    8.531178    -10.282125    4.117938    -2.710486    0.417824    -8.336592    0.968828    -0.461035    -1.746028    
1.575271    82.155800    -67.949509    3.467438    4.725063    -3.020297    -5.152587    -15.956665    -0.523346    1.459339    4.461908    0.142509    0.020787    30.888504    -1.051970    2.873990    -11.004581    -0.413200    19.330866    1.648155    8.893822    -32.235779    11.451626    -9.527597    6.243448    -11.504131    -14.785148    -28.116875    -8.767828    -7.850393    -16.001064    1.677506    10.240485    25.919859    5.402315    5.639988    -4.930224    -9.530010    8.060304    8.810041    -8.212014    12.751396    -4.304164    5.217266    1.361386    -2.115765    -9.325282    -1.762844    5.372710    1.004945    -1.773270    0.303709    -1.969561    -0.430305    -8.427265    3.513290    4.227737    8.564964    -10.266877    4.158804    -2.736633    0.421728    -8.390163    0.931793    -0.444024    -1.678978    
1.575781    82.155510    -67.933220    3.465652    4.735532    -3.019845    -5.147565    -15.971202    -0.522326    1.444828    4.451181    0.144074    0.024132    30.879517    -1.051407    2.879095    -10.983253    -0.411401    19.344145    1.629599    8.889295    -32.259418    11.448887    -9.523906    6.257537    -11.499235    -14.752487    -28.126583    -8.751330    -7.894042    -15.988200    1.698440    10.239180    25.910629    5.396149    5.640301    -4.925006    -9.548730    8.077844    8.799597    -8.233310    12.729092    -4.306149    5.217981    1.365842    -2.103014    -9.322650    -1.793948    5.355930    0.996958    -1.758927    0.307004    -1.987673    -0.435022    -8.425723    3.520138    4.243656    8.556802    -10.273191    4.165365    -2.763492    0.411089    -8.434766    0.898007    -0.453664    -1.618275    
1.579576    82.154915    -67.917656    3.465905    4.747438    -3.025795    -5.132619    -15.982093    -0.520232    1.422270    4.435025    0.145585    0.036611    30.867840    -1.042437    2.861168    -10.964668    -0.405003    19.338913    1.648157    8.890961    -32.257797    11.411798    -9.525342    6.241388    -11.503170    -14.748466    -28.092485    -8.748322    -7.941321    -15.987920    1.695948    10.242983    25.926485    5.384002    5.640943    -4.932468    -9.548233    8.067603    8.789332    -8.232503    12.746670    -4.307484    5.215511    1.353620    -2.109349    -9.319776    -1.774846    5.373882    0.985266    -1.752168    0.306450    -1.998448    -0.434267    -8.431871    3.516125    4.235811    8.568333    -10.269524    4.176116    -2.744662    0.397574    -8.402724    0.931292    -0.483694    -1.678801    
1.581274    82.153168    -67.902672    3.463702    4.754189    -3.026483    -5.125986    -15.986662    -0.518298    1.409094    4.421231    0.147868    0.072559    30.858931    -1.044630    2.811245    -10.950687    -0.414162    19.337107    1.656663    8.899724    -32.265404    11.375620    -9.547751    6.246357    -11.473903    -14.736382    -28.118643    -8.716547    -7.942762    -15.973495    1.691047    10.241945    25.922129    5.376544    5.629199    -4.915180    -9.550920    8.064111    8.754120    -8.239061    12.764965    -4.300782    5.216341    1.351674    -2.118609    -9.316013    -1.809821    5.385424    0.979345    -1.733070    0.291940    -2.020623    -0.413761    -8.430792    3.523115    4.254201    8.562714    -10.280261    4.147999    -2.733933    0.383928    -8.393571    0.948167    -0.470558    -1.708974    
